HIERARCHY
ROOT hip
{
	OFFSET 0.000000 0.000000 0.000000 
	CHANNELS 6 Xposition Yposition Zposition Xrotation Zrotation Yrotation
	JOINT abdomen
	{
		OFFSET 0.000000 3.402643 0.000000 
		CHANNELS 3 Xrotation Zrotation Yrotation
		JOINT chest
		{
			OFFSET 0.000000 8.438565 -0.680529 
			CHANNELS 3 Xrotation Zrotation Yrotation
			JOINT neck
			{
				OFFSET 0.000000 10.207942 -0.272212 
				CHANNELS 3 Xrotation Zrotation Yrotation
				JOINT head
				{
					OFFSET 0.000000 3.130431 0.000000 
					CHANNELS 3 Xrotation Zrotation Yrotation
					End Site
					{
						OFFSET 0.000000 3.130435 0.000000 
					}
				}
			}
			JOINT lCollar
			{
				OFFSET 3.470700 6.669187 -0.816635 
				CHANNELS 3 Yrotation Zrotation Xrotation
				JOINT lShldr
				{
					OFFSET 3.198488 0.000000 0.000000 
					CHANNELS 3 Zrotation Yrotation Xrotation
					JOINT lForeArm
					{
						OFFSET 10.139888 0.000000 0.000000 
						CHANNELS 3 Yrotation Zrotation Xrotation
						JOINT lHand
						{
							OFFSET 8.370511 0.000000 0.000000 
							CHANNELS 3 Zrotation Yrotation Xrotation
							End Site
							{
								OFFSET 4.083176 0.000000 0.000000 
							}
						}
					}
				}
			}
			JOINT rCollar
			{
				OFFSET -3.470700 6.669187 -0.816635 
				CHANNELS 3 Yrotation Zrotation Xrotation
				JOINT rShldr
				{
					OFFSET -3.198488 0.000000 0.000000 
					CHANNELS 3 Zrotation Yrotation Xrotation
					JOINT rForeArm
					{
						OFFSET -10.139888 0.000000 0.000000 
						CHANNELS 3 Yrotation Zrotation Xrotation
						JOINT rHand
						{
							OFFSET -8.370511 0.000000 0.000000 
							CHANNELS 3 Zrotation Yrotation Xrotation
							End Site
							{
								OFFSET -4.083176 0.000000 0.000000 
							}
						}
					}
				}
			}
		}
	}
	JOINT lThigh
	{
		OFFSET 5.308129 -1.633274 1.361059 
		CHANNELS 3 Xrotation Zrotation Yrotation
		JOINT lShin
		{
			OFFSET -2.041588 -20.007561 0.000000 
			CHANNELS 3 Xrotation Zrotation Yrotation
			JOINT lFoot
			{
				OFFSET 0.000000 -19.190928 -1.224953 
				CHANNELS 3 Xrotation Yrotation Zrotation
				End Site
				{
					OFFSET 0.000000 -2.449906 4.627600 
				}
			}
		}
	}
	JOINT rThigh
	{
		OFFSET -5.308129 -1.633274 1.361059 
		CHANNELS 3 Xrotation Zrotation Yrotation
		JOINT rShin
		{
			OFFSET 2.041588 -20.007561 0.000000 
			CHANNELS 3 Xrotation Zrotation Yrotation
			JOINT rFoot
			{
				OFFSET 0.000000 -19.190928 -1.224953 
				CHANNELS 3 Xrotation Yrotation Zrotation
				End Site
				{
					OFFSET 0.000000 -2.449906 4.627600 
				}
			}
		}
	}
}
MOTION
Frames: 14
Frame Time: 0.033333
12.338942 36.713596 89.177910 -1.767578 19.677736 -133.066406 36.386715 1.640625 2.138672 -15.830078 5.712891 -0.009765 -26.298828 -1.845703 -25.351875 20.029297 21.132813 -23.873430 7.060547 15.605470 0.759092 -93.662109 -49.658203 88.271484 -65.410156 -2.314453 -14.980073 9.228515 27.402344 3.535156 10.712891 2.011719 -0.195313 71.113281 6.289063 -1.660156 70.429688 3.750000 -75.107422 -2.871094 -8.808595 0.048828 -60.665749 36.315102 -10.187469 85.274117 1.748880 -3.927861 -25.353563 21.724604 5.227881 -59.914173 -25.836622 -1.170843 55.965500 -0.362995 3.302361 -5.167050 -3.951958 4.607450 
12.064947 36.777752 88.771782 -0.175781 19.160158 -131.132813 34.794922 0.849609 1.718895 -15.820313 4.833984 0.175781 -22.753906 -1.699219 -25.713179 20.937500 22.353516 -23.951366 6.562500 15.400392 0.761719 -94.443359 -54.697262 96.083984 -63.818356 -2.441406 -18.075756 6.513672 26.757813 2.119140 10.888672 2.011719 -0.195655 72.480469 5.019531 -1.102661 69.687500 3.574219 -76.757813 -2.128906 -8.642579 -0.087891 -59.598843 37.251534 -10.708708 84.564217 1.850536 -3.993014 -25.148382 19.642395 4.000426 -55.935802 -24.911560 -0.824772 59.999989 -0.537127 3.230962 -8.036270 -3.368645 4.240376 
11.576314 36.639587 88.114311 1.572266 17.216797 -129.199219 33.027344 -0.458984 0.585859 -15.292968 3.955079 -0.009092 -17.636719 -0.664063 -25.966909 21.660156 23.056641 -24.097736 5.576172 15.000000 0.739660 -95.087891 -60.214844 103.710938 -61.943359 -2.578125 -19.921875 4.042969 26.347656 1.064453 10.888672 2.187500 -0.234748 73.457031 4.609375 0.703910 69.228516 3.613281 -79.404907 -2.861328 -7.578125 0.048828 -55.885559 38.465347 -9.685068 83.524597 1.582964 -3.837784 -26.505043 17.766396 3.570879 -50.868248 -25.097385 -0.992159 62.792915 -0.712934 3.415240 -12.899452 -7.329638 3.104761 
10.854080 36.332714 87.176590 3.867188 14.589844 -127.927231 30.917969 -1.845703 -0.927734 -14.941406 3.085938 -0.722130 -11.054688 1.005859 -25.048830 22.373049 22.871096 -23.541126 4.394531 14.951171 0.671309 84.863297 -113.720703 -68.055817 -60.830074 -2.617188 -20.312054 2.871094 22.685549 0.501815 10.537109 2.011719 -0.185890 74.228516 4.130859 4.853516 70.712891 3.378906 -83.711517 -5.859375 -3.701171 0.048828 -50.637093 40.415802 -8.740111 83.160294 1.670656 -4.083863 -27.856220 16.235601 3.609122 -46.186749 -25.124416 -0.986911 64.757729 -0.721586 3.136838 -16.217888 -9.030721 2.169601 
9.972253 35.997517 86.050682 6.328125 11.777345 -127.585899 28.095703 -3.007812 -2.558594 -14.580079 1.679688 -1.777344 -4.042969 3.291016 -22.958420 23.603516 21.455078 -22.089842 3.525390 15.458982 0.703125 87.138680 -108.144531 -66.112793 -61.503906 -2.431641 -16.416128 0.595703 18.291016 -0.341797 10.009766 2.187500 -0.205078 75.937500 3.281250 6.767578 75.439453 3.447266 -88.105453 -10.234376 0.332031 -0.205078 -44.817020 42.329239 -7.770361 83.174049 1.583206 -3.803521 -27.908140 16.189110 3.561516 -42.086483 -24.919977 -1.566507 68.075722 -1.064568 3.234833 -18.213791 -9.192477 1.529212 
9.088332 35.691875 84.788231 8.789063 9.492188 -128.113632 25.439453 -3.779297 -4.257813 -14.755858 -0.078125 -3.193373 1.669922 6.181641 -20.244141 25.009766 19.160158 -20.458984 3.457031 16.874998 0.820313 -84.189453 -78.544922 106.513870 -62.050781 -2.089844 -10.077769 -0.986328 9.482422 -0.603860 9.130859 2.539063 -0.224609 77.578125 1.660156 6.875001 83.769531 3.281250 -93.613838 -13.759766 2.529297 -0.741755 -38.007099 44.335209 -7.175473 83.174049 1.583200 -3.803529 -27.726131 17.340424 3.913044 -38.923412 -24.734827 -2.681219 71.781754 -1.249941 3.269413 -18.457714 -9.119637 1.740940 
8.422496 35.406311 83.523911 11.250000 7.734375 -129.002594 23.642576 -4.111328 -5.644531 -14.921875 -1.835938 -4.423828 4.072266 8.691407 -17.850084 25.693357 16.337891 -19.023438 4.042969 18.828125 0.787864 -38.408207 -85.791016 59.619144 -62.675781 -1.982422 -7.500000 0.898438 0.888672 -0.185394 8.085938 3.066406 -0.263672 78.222656 1.884766 4.140948 95.058594 3.066406 -97.363281 -15.039063 4.853516 -1.327297 -31.979092 46.021946 -6.766932 82.990288 1.758369 -3.838792 -26.943029 19.009762 4.735992 -36.879704 -24.595903 -4.310468 75.269379 -1.591727 3.495970 -17.839685 -8.248151 2.091022 
8.119811 35.084904 82.362671 12.832032 7.031250 -129.705841 23.056641 -4.042969 -7.089844 -15.976563 -3.251953 -5.820867 4.804687 10.244141 -16.435543 25.322266 14.755858 -18.339844 3.583984 20.595703 0.996094 40.781254 -82.080078 -24.355371 -63.261719 -2.080078 -8.202771 3.388672 -6.484375 -0.341797 7.900391 3.789063 -0.166661 78.134766 3.476563 -2.655658 106.376953 3.144531 -93.339844 -14.804686 7.509766 -2.010441 -28.093409 47.224186 -7.171242 82.646721 1.593083 -3.782927 -27.016834 21.539289 5.887698 -37.375660 -25.257980 -5.769216 79.836739 -1.952873 3.562668 -15.351036 -5.437224 3.594168 
8.176211 34.704514 81.329498 13.349610 7.197265 -129.373779 22.822266 -3.701171 -8.252584 -16.855469 -3.603516 -7.041016 2.685547 10.078124 -16.248291 25.312498 14.580077 -17.812502 4.384766 20.986328 1.044922 64.033203 -75.371094 -53.779297 -62.226563 -2.070312 -8.271132 7.265625 -12.187500 -1.291124 7.724609 4.130859 -0.205078 76.035156 10.732422 -10.693359 113.437500 3.486328 -81.328712 -15.898437 12.451172 -3.288908 -26.698307 48.123272 -7.014408 81.922920 1.944705 -3.969221 -28.120089 24.329885 7.582131 -40.318748 -26.637909 -6.544434 82.803062 -2.119330 3.515607 -13.269765 0.548728 4.992843 
8.463997 34.301346 80.329575 12.656250 7.734375 -128.299469 23.095703 -3.183594 -9.384767 -17.382813 -3.603516 -8.261718 -1.250000 8.583984 -17.166512 26.035156 15.625000 -17.604792 4.277344 19.912109 0.976563 72.070313 -70.820313 -69.746094 -59.726563 -2.119140 -11.103155 9.677735 -15.527344 -2.356130 5.966797 3.417969 -0.176363 71.943359 22.460936 -18.945311 116.748039 3.710938 -63.115238 -21.113281 12.812500 -4.714803 -28.048737 49.133316 -9.245969 80.873764 1.963801 -3.781899 -27.825991 24.417545 7.540039 -44.887436 -28.921886 -5.883376 82.812759 -2.129061 3.507663 -11.918797 6.187571 6.224545 
8.826529 33.942383 79.246788 11.064452 8.251953 -126.748055 23.203125 -2.714844 -10.341798 -17.373047 -4.306641 -9.316406 -6.054687 6.542969 -18.182482 27.119141 16.845703 -17.555763 4.619141 17.617188 0.729466 82.275391 -70.126953 -88.729889 -56.201172 -2.246094 -12.079696 11.464843 -18.310547 -3.378906 5.097656 2.880859 -0.263670 62.294926 32.919922 -29.525942 117.763680 3.583984 -49.043579 -24.970701 9.062500 -4.139087 -29.885004 49.056458 -11.352520 78.955574 1.847301 -3.972426 -25.539305 23.627758 5.968466 -49.870430 -31.443583 -2.899243 80.184845 -1.953205 3.401550 -10.642327 6.865677 6.057093 
9.169482 33.671097 77.978912 8.955079 8.613282 -125.857918 23.154297 -2.011719 -10.859717 -16.845701 -5.712891 -10.206050 -10.732421 5.078125 -18.749138 28.017580 17.714846 -17.340780 4.208984 14.951171 0.771485 -86.455078 -107.109375 70.644531 -54.267582 -2.382813 -13.125001 13.330078 -20.683594 -4.394531 4.570313 2.363281 -0.195715 48.212891 39.316406 -39.573895 116.992195 3.339844 -37.139240 -26.220701 5.576172 -2.704128 -29.895597 48.715248 -12.481395 76.140930 1.447324 -3.849212 -22.960695 23.551701 4.995410 -54.957359 -33.552734 2.021571 75.971313 -1.591538 3.541514 -9.707527 4.999156 5.870911 
9.462441 33.522587 76.464729 6.142578 8.779296 -126.219215 22.412107 -1.533203 -11.269530 -16.660156 -7.119140 -10.742188 -14.414064 3.681641 -18.613281 28.378906 17.539063 -16.627918 2.783203 12.783203 0.566406 -72.333984 -101.591797 48.623047 -55.341797 -2.402344 -15.556232 15.253906 -22.656250 -5.458984 4.384766 1.308594 -0.097879 35.175781 41.777344 -46.546230 116.640633 2.988281 -27.324726 -26.269533 3.193360 -1.748047 -26.622698 47.883114 -10.574819 71.934097 1.272045 -4.137267 -20.876284 25.178913 4.711441 -59.660233 -34.069107 7.516154 70.520226 -1.581765 3.495292 -8.934690 1.926697 5.147246 
9.696536 33.489460 74.643692 3.164063 8.964846 -128.475037 21.162107 -1.142578 -11.337892 -16.835938 -7.822267 -10.917968 -17.822266 2.363281 -17.626551 29.433594 16.816406 -15.185550 0.937500 10.996094 0.476653 -25.957035 -95.849609 -4.218752 -58.232426 -2.558594 -17.294924 15.947264 -24.746092 -6.318359 3.681641 -0.107422 -0.175781 27.412109 42.939457 -47.265625 117.597664 2.685547 -20.605927 -25.546875 1.357422 -0.751722 -19.782455 46.295780 -7.116277 65.951057 0.940133 -3.969971 -18.249853 28.558397 4.640641 -64.193314 -32.674114 12.762161 64.757729 -0.721582 3.136841 -6.380455 -1.005182 4.728431 
